<?xml version="1.0" encoding="UTF-8"?><svg id="Capa_1" xmlns="http://www.w3.org/2000/svg" viewBox="0 0 1152 648"><defs><style>.cls-1{fill:#450088;}.cls-1,.cls-2{stroke-width:0px;}.cls-2{fill:#ff471f;}</style></defs><path class="cls-2" d="M350.18,349.7l88.82,88.82-22.61,22.61c-14.01,14.01-36.72,14.01-50.73,0l-78.98-78.98c-6.73-6.73-10.51-15.85-10.51-25.36v-66.14c0-9.51,3.78-18.62,10.5-25.35l78.37-78.37c14.35-14.35,37.61-14.35,51.95,0l22,22-88.82,88.82c-14.34,14.34-14.34,37.6,0,51.94Z"/><path class="cls-2" d="M224.19,225.83l32.51-121.33,30.89,8.28c19.14,5.13,30.49,24.8,25.36,43.93l-28.91,107.88c-2.46,9.19-8.47,17.02-16.71,21.78l-57.28,33.07c-8.23,4.75-18.02,6.04-27.2,3.58l-107.06-28.69c-19.6-5.25-31.23-25.39-25.98-44.99l8.05-30.05,121.33,32.51c19.59,5.25,39.73-6.38,44.98-25.97Z"/><path class="cls-2" d="M179.51,396.2l-121.33,32.51-8.28-30.89c-5.13-19.14,6.23-38.81,25.36-43.93l107.88-28.91c9.19-2.46,18.98-1.17,27.22,3.58l57.28,33.07c8.23,4.75,14.24,12.58,16.7,21.77l28.69,107.06c5.25,19.6-6.38,39.74-25.98,44.99l-30.05,8.05-32.51-121.33c-5.25-19.59-25.39-31.22-44.98-25.97Z"/><path class="cls-1" d="M470.2,240.58h31.94v166.83h-31.94v-166.83Z"/><path class="cls-1" d="M615.58,380l.48,23.59s-27.41,6.68-49.57,6.68c-35.99,0-51.24-17.87-51.24-60.77s17.87-64.11,52.67-64.11,51.96,17.87,51.96,53.86l-2.38,22.16h-70.07c.24,14.3,6.91,20.74,24.07,20.74,19.54,0,44.09-2.15,44.09-2.15ZM588.41,337.11c0-19.31-5.48-25.5-20.5-25.5s-20.5,7.39-20.73,25.5h41.23Z"/><path class="cls-1" d="M624.87,429.1c0-10.96,5.24-19.07,17.16-28.36-5.24-3.58-8.82-10.73-8.82-18.11,0-5.96,9.29-19.07,9.29-19.07-8.34-5.96-16.21-14.78-16.21-35.51,0-30.75,22.16-42.18,50.05-42.18,10.49,0,24.07,3.1,24.07,3.1l38.37-1.19v25.5l-17.87-1.43c2.15,3.33,5.24,9.29,5.24,16.21,0,33.36-17.64,41.94-50.29,41.94-2.62,0-7.63-.48-9.77-.95,0,0-2.38,6.2-2.38,9.29,0,6.2,2.86,7.63,23.12,7.86,40.52.24,51.95,9.3,51.95,35.99,0,29.08-25.74,40.04-56.48,40.04-34.8,0-57.44-6.44-57.44-33.13ZM662.77,412.18c-4.05,4.05-6.43,7.63-6.43,13.58,0,6.91,8.34,10.25,26.22,10.25,15.49,0,24.07-3.34,24.07-11.92,0-9.05-4.77-10.01-22.4-10.25-6.67,0-21.45-1.67-21.45-1.67ZM694.7,328.05c0-11.2-5.24-17.4-18.11-17.4s-18.35,6.2-18.35,17.4,5.48,17.63,18.35,17.63,18.11-6.43,18.11-17.63Z"/><path class="cls-1" d="M837.46,375c.48,7.15,1.43,10.01,7.86,11.2l-.95,24.07c-15.97,0-24.07-1.67-34.08-8.34,0,0-17.16,8.34-35.03,8.34-25.02,0-36.94-13.82-36.94-39.09,0-26.93,15.49-34.56,41.71-36.46l25.5-1.91v-7.39c0-10.25-4.53-12.87-14.06-12.87-15.73,0-44.81,1.91-44.81,1.91l-.95-22.16s25.5-6.91,48.38-6.91c30.98,0,43.38,12.15,43.38,40.04v49.57ZM783.84,356.89c-8.34.72-13.35,4.77-13.35,13.35s3.1,14.06,11.68,14.06c10.25,0,23.36-3.81,23.36-3.81v-25.5l-21.69,1.91Z"/><path class="cls-1" d="M857.48,240.58h31.94v166.83h-31.94v-166.83Z"/><path class="cls-1" d="M928.98,288.25l21.69,91.99h5.48l21.69-91.99h31.46l-41.94,169.21h-31.22l13.11-50.05h-22.4l-29.31-119.16h31.46Z"/><path class="cls-1" d="M1099.63,318.04s-29.55-3.81-43.38-3.81-16.68,3.1-16.68,9.53c0,5.48,4.53,6.67,26.45,10.73,27.65,5,37.42,13.11,37.42,37.18,0,27.88-18.11,38.61-47.9,38.61-17.64,0-45.76-5.72-45.76-5.72l.95-26.69s29.55,3.81,41.71,3.81c15.25,0,19.3-3.1,19.3-9.29,0-5.24-2.62-7.63-24.55-11.2-25.74-4.29-39.32-10.49-39.32-36.7,0-27.65,20.97-38.85,46-38.85,17.16,0,46.24,5.96,46.24,5.96l-.48,26.46Z"/></svg>